<?xml version="1.0" encoding="UTF-8"?><svg id="Layer_2" xmlns="http://www.w3.org/2000/svg" viewBox="0 0 375.47 336.23"><defs><style>.cls-1{fill:#fff;}.cls-2{fill:#24eaf5;}.cls-3{fill:#5f38ed;}</style></defs><g id="Layer_1-2"><g><g><path class="cls-1" d="M15.21,320.39h6.39c5.02,0,8.41,3.23,8.41,7.85s-3.39,7.85-8.41,7.85h-6.39v-15.7Zm6.3,14.27c4.17,0,6.86-2.65,6.86-6.42s-2.69-6.42-6.86-6.42h-4.64v12.83h4.64Z"/><path class="cls-1" d="M40.47,320.39h1.66v15.7h-1.66v-15.7Z"/><path class="cls-1" d="M65.03,328.24h1.59v5.99c-1.48,1.32-3.59,2-5.76,2-4.78,0-8.28-3.39-8.28-7.99s3.5-7.99,8.3-7.99c2.38,0,4.44,.76,5.83,2.27l-1.03,1.05c-1.32-1.3-2.89-1.84-4.73-1.84-3.88,0-6.73,2.76-6.73,6.5s2.85,6.5,6.71,6.5c1.5,0,2.89-.34,4.1-1.21v-5.29Z"/><path class="cls-1" d="M78.05,320.39h1.66v15.7h-1.66v-15.7Z"/><path class="cls-1" d="M94.61,321.83h-5.52v-1.44h12.7v1.44h-5.52v14.27h-1.66v-14.27Z"/><path class="cls-1" d="M120.23,331.9h-8.75l-1.88,4.19h-1.73l7.18-15.7h1.64l7.18,15.7h-1.75l-1.88-4.19Zm-.61-1.35l-3.77-8.43-3.77,8.43h7.54Z"/><path class="cls-1" d="M133.2,320.39h1.66v14.27h8.79v1.44h-10.45v-15.7Z"/><path class="cls-1" d="M164.25,334.18l.65-1.28c1.12,1.1,3.12,1.91,5.18,1.91,2.94,0,4.22-1.23,4.22-2.78,0-4.31-9.67-1.66-9.67-7.47,0-2.31,1.79-4.31,5.79-4.31,1.77,0,3.61,.52,4.87,1.39l-.56,1.32c-1.35-.88-2.92-1.3-4.31-1.3-2.87,0-4.15,1.28-4.15,2.85,0,4.31,9.67,1.7,9.67,7.42,0,2.31-1.84,4.28-5.85,4.28-2.36,0-4.67-.83-5.83-2.04Z"/><path class="cls-1" d="M184.89,328.24c0-4.58,3.5-7.99,8.25-7.99s8.23,3.39,8.23,7.99-3.52,7.99-8.23,7.99-8.25-3.41-8.25-7.99Zm14.83,0c0-3.75-2.8-6.5-6.57-6.5s-6.62,2.76-6.62,6.5,2.83,6.5,6.62,6.5,6.57-2.76,6.57-6.5Z"/><path class="cls-1" d="M211.84,320.39h1.66v14.27h8.79v1.44h-10.45v-15.7Z"/><path class="cls-1" d="M231.35,329.38v-8.99h1.66v8.93c0,3.72,1.75,5.43,4.8,5.43s4.82-1.7,4.82-5.43v-8.93h1.61v8.99c0,4.51-2.42,6.84-6.44,6.84s-6.46-2.33-6.46-6.84Z"/><path class="cls-1" d="M258.73,321.83h-5.52v-1.44h12.7v1.44h-5.52v14.27h-1.66v-14.27Z"/><path class="cls-1" d="M275.28,320.39h1.66v15.7h-1.66v-15.7Z"/><path class="cls-1" d="M287.4,328.24c0-4.58,3.5-7.99,8.25-7.99s8.23,3.39,8.23,7.99-3.52,7.99-8.23,7.99-8.25-3.41-8.25-7.99Zm14.83,0c0-3.75-2.8-6.5-6.57-6.5s-6.62,2.76-6.62,6.5,2.83,6.5,6.62,6.5,6.57-2.76,6.57-6.5Z"/><path class="cls-1" d="M327.47,320.39v15.7h-1.37l-10.09-12.74v12.74h-1.66v-15.7h1.37l10.12,12.74v-12.74h1.64Z"/><path class="cls-1" d="M337.81,334.18l.65-1.28c1.12,1.1,3.12,1.91,5.18,1.91,2.94,0,4.22-1.23,4.22-2.78,0-4.31-9.67-1.66-9.67-7.47,0-2.31,1.79-4.31,5.79-4.31,1.77,0,3.61,.52,4.87,1.39l-.56,1.32c-1.35-.88-2.92-1.3-4.31-1.3-2.87,0-4.15,1.28-4.15,2.85,0,4.31,9.67,1.7,9.67,7.42,0,2.31-1.84,4.28-5.85,4.28-2.36,0-4.67-.83-5.83-2.04Z"/></g><g><polygon class="cls-2" points="235.41 68.94 208.4 79.11 235.41 89.6 283.3 109.82 283.3 49.01 235.41 68.94"/><polygon class="cls-3" points="139.75 94.36 139.75 64.17 282.98 0 86.64 0 86.64 158.54 282.98 158.54 139.75 94.36"/></g><g><path class="cls-1" d="M26.16,262.91h-5.66v24.78H0v-93.08H20.5v51.07h6.04l13.96-22.89h23.52l-20.38,31.32,21.64,33.59h-23.9l-15.22-24.78Z"/><path class="cls-1" d="M74.03,282.98c-4.07-3.73-6.1-8.62-6.1-14.65,0-6.79,2.54-12.12,7.61-15.98,5.07-3.86,12.01-5.79,20.82-5.79,5.03,0,10.1,.67,15.22,2.01v-1.64c0-3.44-1.11-5.95-3.33-7.55-2.22-1.59-5.77-2.39-10.63-2.39-3.27,0-6.48,.4-9.62,1.19-3.14,.8-6.73,2.03-10.75,3.71l-4.91-14.21c5.03-2.26,9.66-3.88,13.9-4.84,4.23-.96,8.95-1.45,14.15-1.45,9.64,0,17.06,2.26,22.26,6.79,5.2,4.53,7.8,10.9,7.8,19.12v40.38h-17.74l-.38-7.92c-2.69,2.69-5.98,4.82-9.87,6.42-3.9,1.59-7.99,2.39-12.26,2.39-6.71,0-12.1-1.87-16.16-5.6Zm15.91-10.44c1.51,1.22,3.69,1.82,6.54,1.82,4.19,0,7.71-1.19,10.57-3.58,2.85-2.39,4.44-5.39,4.78-8.99-4.95-1.43-9.23-2.14-12.83-2.14s-6.5,.65-8.43,1.95c-1.93,1.3-2.89,3.21-2.89,5.72,0,2.26,.75,4.01,2.26,5.22Z"/><path class="cls-1" d="M159.37,285.05c-5.53-2.85-9.81-6.83-12.83-11.95-3.02-5.11-4.53-11.03-4.53-17.74s1.45-12.54,4.34-17.74c2.89-5.2,6.98-9.25,12.26-12.14,5.28-2.89,11.28-4.34,17.99-4.34s12.66,1.47,17.86,4.4c5.2,2.94,9.22,7,12.08,12.2,2.85,5.2,4.28,11.07,4.28,17.61,0,2.1-.21,4.53-.63,7.3h-48.43c1.01,3.44,3.12,6.14,6.35,8.11,3.23,1.97,7.23,2.96,12.01,2.96,7.13,0,13.63-2.14,19.5-6.42l7.92,12.83c-3.69,2.94-8.01,5.2-12.96,6.79-4.95,1.59-10.27,2.39-15.98,2.39-7.3,0-13.71-1.43-19.25-4.28Zm32.58-35.47c-.84-3.86-2.58-6.94-5.22-9.25-2.64-2.31-5.97-3.46-10-3.46s-7.28,1.15-10,3.46c-2.73,2.31-4.47,5.39-5.22,9.25h30.44Z"/><path class="cls-1" d="M233.46,284.86c-4.61-2.89-8.22-6.92-10.82-12.08-2.6-5.16-3.9-11.01-3.9-17.55s1.3-12.39,3.9-17.55c2.6-5.16,6.2-9.16,10.82-12.01,4.61-2.85,9.85-4.28,15.72-4.28,4.19,0,8.09,.78,11.7,2.33,3.6,1.55,6.75,3.75,9.43,6.6v-35.72h20.5v93.08h-18.74l-.25-8.68c-2.6,3.27-5.83,5.79-9.69,7.55-3.86,1.76-8.18,2.64-12.96,2.64-5.87,0-11.11-1.45-15.72-4.34Zm9.94-17.74c2.93,3.06,6.75,4.59,11.45,4.59s8.41-1.53,11.38-4.59c2.98-3.06,4.47-7.02,4.47-11.89s-1.47-8.82-4.4-11.89c-2.94-3.06-6.75-4.59-11.45-4.59s-8.51,1.53-11.45,4.59c-2.94,3.06-4.4,7.02-4.4,11.89s1.47,8.83,4.4,11.89Z"/><path class="cls-1" d="M320.44,285.05c-5.49-2.85-9.75-6.86-12.77-12.01s-4.53-11.09-4.53-17.8,1.51-12.64,4.53-17.8,7.27-9.16,12.77-12.01c5.49-2.85,11.8-4.28,18.93-4.28s13.42,1.43,18.87,4.28c5.45,2.85,9.69,6.86,12.7,12.01s4.53,11.09,4.53,17.8-1.51,12.64-4.53,17.8-7.25,9.16-12.7,12.01c-5.45,2.85-11.74,4.28-18.87,4.28s-13.44-1.43-18.93-4.28Zm7.36-17.86c2.93,3.02,6.79,4.53,11.57,4.53s8.51-1.51,11.45-4.53c2.93-3.02,4.4-7,4.4-11.95s-1.47-8.82-4.4-11.89c-2.94-3.06-6.75-4.59-11.45-4.59s-8.53,1.53-11.51,4.59c-2.98,3.06-4.47,7.02-4.47,11.89s1.47,8.93,4.4,11.95Z"/></g></g></g></svg>